<svg width="20" height="20" viewBox="0 0 20 20" fill="none" xmlns="http://www.w3.org/2000/svg">
<path fill-rule="evenodd" clip-rule="evenodd" d="M19.6329 0.367164C19.7493 0.483256 19.8416 0.621169 19.9046 0.773003C19.9676 0.924837 20.0001 1.08761 20.0001 1.252C20.0001 1.41638 19.9676 1.57916 19.9046 1.73099C19.8416 1.88282 19.7493 2.02074 19.6329 2.13683L2.13683 19.6335C1.90217 19.8682 1.5839 20 1.25203 20C0.920167 20 0.601893 19.8682 0.367229 19.6335C0.132565 19.3988 0.000732424 19.0805 0.000732422 18.7487C0.000732419 18.4168 0.132565 18.0985 0.367229 17.8638L17.8633 0.367164C17.9794 0.250778 18.1173 0.158439 18.2691 0.0954345C18.421 0.0324304 18.5837 0 18.7481 0C18.9125 0 19.0753 0.0324304 19.2271 0.0954345C19.3789 0.158439 19.5168 0.250778 19.6329 0.367164V0.367164Z" fill="#EEE7E1"/>
<path fill-rule="evenodd" clip-rule="evenodd" d="M0.367152 0.367164C0.25077 0.483256 0.158433 0.621169 0.0954314 0.773003C0.0324293 0.924837 0 1.08761 0 1.252C0 1.41638 0.0324293 1.57916 0.0954314 1.73099C0.158433 1.88282 0.25077 2.02074 0.367152 2.13683L17.8632 19.6335C18.0979 19.8682 18.4162 20 18.748 20C19.0799 20 19.3982 19.8682 19.6329 19.6335C19.8675 19.3988 19.9993 19.0805 19.9993 18.7487C19.9993 18.4168 19.8675 18.0985 19.6329 17.8638L2.13676 0.367164C2.02067 0.250778 1.88276 0.158439 1.73093 0.0954345C1.5791 0.0324304 1.41634 0 1.25196 0C1.08757 0 0.924807 0.0324304 0.772978 0.0954345C0.621149 0.158439 0.483241 0.250778 0.367152 0.367164V0.367164Z" fill="#EEE7E1"/>
</svg>
