<svg width="20" height="30" viewBox="0 0 20 30" fill="none" xmlns="http://www.w3.org/2000/svg">
<path d="M5.2 29.3999C7.85097 29.3999 10 27.2509 10 24.5999V19.7999H5.2C2.54903 19.7999 0.4 21.949 0.4 24.5999C0.4 27.2509 2.54903 29.3999 5.2 29.3999Z" fill="#444342"/>
<path d="M0.4 15C0.4 12.349 2.54903 10.2 5.2 10.2H10V19.8H5.2C2.54903 19.8 0.4 17.6509 0.4 15Z" fill="#444342"/>
<path d="M0.4 5.39998C0.4 2.74901 2.54903 0.599976 5.2 0.599976H10V10.2H5.2C2.54903 10.2 0.4 8.05094 0.4 5.39998Z" fill="#444342"/>
<path d="M10 0.599976H14.8C17.451 0.599976 19.6 2.74901 19.6 5.39998C19.6 8.05094 17.451 10.2 14.8 10.2H10V0.599976Z" fill="#444342"/>
<path d="M19.6 15C19.6 17.6509 17.451 19.8 14.8 19.8C12.149 19.8 10 17.6509 10 15C10 12.349 12.149 10.2 14.8 10.2C17.451 10.2 19.6 12.349 19.6 15Z" fill="#444342"/>
</svg>
