<svg width="42" height="46" viewBox="0 0 42 46" fill="none" xmlns="http://www.w3.org/2000/svg">
<path d="M41.274 0.325C41.084 0.118 40.817 0 40.536 0H1.464C1.183 0 0.916002 0.118 0.726002 0.325C0.536002 0.532 0.443002 0.81 0.468002 1.089L3.988 40.516C4.025 40.928 4.312 41.275 4.71 41.389L20.72 45.962C20.809 45.987 20.902 46 20.994 46C21.086 46 21.179 45.987 21.268 45.962L37.292 41.389C37.69 41.275 37.977 40.928 38.014 40.516L41.532 1.089C41.557 0.81 41.463 0.532 41.274 0.325ZM8 27.004L15 28.946V9H19V35L8 31.949V27.004ZM34.054 20L33 32.25L23 35V30.399L29.75 28.544L30 24.794L23 26V9H35L34.655 13H27V21L34.054 20Z" fill="#444342"/>
</svg>
