<svg width="42" height="46" viewBox="0 0 42 46" fill="none" xmlns="http://www.w3.org/2000/svg">
<path d="M40.81 0.325C40.62 0.118 40.353 0 40.072 0H0.999998C0.718998 0 0.451998 0.118 0.261998 0.325C0.0719977 0.532 -0.0210022 0.81 0.00399778 1.089L3.524 40.516C3.561 40.928 3.848 41.275 4.246 41.389L20.256 45.962C20.345 45.987 20.438 46 20.53 46C20.622 46 20.715 45.987 20.804 45.962L36.828 41.389C37.226 41.275 37.513 40.928 37.55 40.516L41.068 1.089C41.093 0.81 40.999 0.532 40.81 0.325ZM7.536 27.004L14.536 28.946V9H18.536V35L7.536 31.949V27.004ZM33.59 20L32.536 32.25L22.536 35V30.399L29.286 28.544L29.536 24.794L22.536 26V9H34.536L34.191 13H26.536V21L33.59 20Z" fill="#EEE7E1"/>
</svg>
