<svg width="32" height="32" viewBox="0 0 32 32" fill="none" xmlns="http://www.w3.org/2000/svg">
<path d="M22.906 12.693C21.224 5.27601 17.25 2.84401 16.823 1.91201C16.354 1.25101 15.849 0.00100708 15.849 0.00100708C15.844 0.0270071 15.844 0.0430071 15.839 0.0690071V0.0850071C15.839 0.106007 15.834 0.116007 15.834 0.137007V0.158007H15.829C15.829 0.168007 15.829 0.179007 15.829 0.189007V0.225007H15.824C15.824 0.235007 15.824 0.251007 15.819 0.256007V0.287007C15.819 0.297007 15.819 0.308007 15.814 0.313007V0.339007C15.814 0.355007 15.814 0.370007 15.809 0.381007V0.386007C15.809 0.407007 15.804 0.433007 15.799 0.454007V0.464007C15.794 0.469007 15.794 0.474007 15.794 0.480007V0.501007H15.789V0.532007H15.784V0.553007H15.774V0.584007H15.769V0.610007H15.764V0.631007H15.759V0.652007H15.754V0.673007H15.749V0.694007H15.744V0.710007H15.739V0.731007H15.734V0.736007V0.752007H15.729C15.724 0.752007 15.724 0.757007 15.724 0.757007V0.767007L15.719 0.777007C15.719 0.787007 15.714 0.798007 15.709 0.808007C15.704 0.813007 15.704 0.813007 15.704 0.818007V0.828007H15.699V0.838007H15.689V0.864007H15.679V0.880007H15.674V0.885007H15.669V0.895007H15.664V0.911007H15.659V0.921007H15.649V0.937007H15.644V0.947007H15.639V0.957007H15.634V0.973007H15.629V0.983007H15.624V0.988007H15.619V0.998007H15.609V1.01401H15.604V1.01901H15.599V1.02901H15.594V1.04501H15.589V1.05001H15.584V1.06001H15.579V1.06501H15.574V1.08101H15.564V1.08601H15.559V1.09601H15.554V1.10101H15.549V1.11101H15.544C15.544 1.11601 15.544 1.11601 15.544 1.11601V1.12101C15.539 1.12101 15.539 1.12601 15.539 1.12601V1.13101H15.534C15.529 1.14101 15.524 1.14701 15.518 1.15701C15.518 1.15701 15.508 1.16701 15.508 1.17301C15.503 1.17301 15.503 1.17801 15.503 1.17801V1.18301H15.498V1.18801H15.493C15.493 1.18801 15.493 1.18801 15.493 1.19301V1.19801H15.483V1.20301H15.478V1.20801H15.473V1.21301V1.22301H15.468V1.22801H15.463V1.23301H15.458V1.24301H15.453V1.23301H15.443V1.23801H15.438V1.24801H15.433V1.25801H15.428V1.26301H15.423V1.26801H15.418V1.27301H15.413V1.28301H15.403V1.28801H15.398V1.29801H15.393V1.30301H15.388V1.30801H15.383V1.32401H15.378V1.32901H15.373V1.33401H15.368V1.33901H15.363V1.34401H15.353V1.35401H15.348V1.35901H15.343V1.36401H15.338V1.37401H15.333V1.37901H15.323V1.38401H15.318V1.38901H15.313V1.39901H15.308V1.40901H15.303V1.41401H15.298V1.41901H15.288V1.42401H15.283V1.42901H15.278V1.43901H15.273V1.44401H15.268V1.45401H15.263V1.45901H15.258V1.46401H15.253V1.46901H15.248V1.47401H15.238V1.47901C15.233 1.47901 15.233 1.48401 15.233 1.48401L15.228 1.48901L15.223 1.49401V1.50401H15.218V1.50901H15.213V1.51401H15.208V1.51901H15.203L15.193 1.52901V1.53401C15.183 1.53901 15.183 1.54401 15.172 1.55501C15.172 1.55501 15.162 1.56501 15.156 1.56501C15.14 1.57501 15.12 1.59601 15.104 1.61201C15.094 1.61701 15.083 1.62801 15.073 1.63301C15.052 1.65401 15.031 1.66901 15.01 1.68501C14.979 1.71601 14.947 1.73701 14.911 1.76801H14.906C14.833 1.83101 14.75 1.90301 14.661 1.98201H14.656C14.432 2.18001 14.166 2.43501 13.864 2.73701L13.838 2.76301C12.025 4.63801 9.16601 8.54901 8.86901 14.867C8.83801 15.388 8.84301 15.898 8.87401 16.393V16.403C9.02001 18.893 9.80101 21.018 10.78 22.747C11.165 23.435 11.587 24.06 12.014 24.622C13.483 26.56 14.983 27.711 15.363 27.992C15.952 29.351 15.899 31.695 15.899 31.695L16.758 31.981C16.758 31.981 16.581 29.715 16.826 28.616C16.904 28.277 17.081 27.986 17.29 27.736C17.436 27.637 17.853 27.335 18.353 26.877C18.379 26.851 18.395 26.83 18.416 26.804C20.442 24.913 24.229 20.257 22.932 12.674L22.906 12.693Z" fill="#EEE7E1"/>
</svg>
