<svg width="48" height="43" viewBox="0 0 48 43" fill="none" xmlns="http://www.w3.org/2000/svg">
<path fill-rule="evenodd" clip-rule="evenodd" d="M33.5547 0.984367C32.775 0.95815 31.9589 1.09408 31.1406 1.35937C29.5041 1.88993 27.7892 2.92388 26.0293 4.35546C25.3396 4.9165 24.6436 5.55782 23.9453 6.23827C23.2624 5.5751 22.5807 4.95099 21.9062 4.40234C20.1478 2.9719 18.4375 1.93756 16.8047 1.4082C15.1719 0.878831 13.5472 0.862428 12.2129 1.6328C10.8786 2.40318 10.0806 3.81735 9.72266 5.49609C9.36469 7.17482 9.40413 9.17398 9.76367 11.4121C9.88856 12.1895 10.0667 13.0051 10.2695 13.8359C9.5071 14.067 8.76668 14.3099 8.08008 14.5781C6.00798 15.3874 4.29345 16.3557 3.04492 17.5078C1.7964 18.66 0.990234 20.0583 0.990234 21.5937C0.990234 23.1292 1.7964 24.5256 3.04492 25.6777C4.29345 26.8299 6.00798 27.8001 8.08008 28.6094C8.81425 28.8961 9.60912 29.1543 10.4297 29.3984C10.1345 30.5013 9.89539 31.5715 9.73242 32.5859C9.37259 34.8258 9.33459 36.8253 9.69336 38.5078C10.0521 40.1904 10.8505 41.6125 12.1914 42.3867C13.5323 43.1609 15.1643 43.1419 16.8008 42.6113C18.4373 42.0808 20.1502 41.0488 21.9102 39.6172C22.5935 39.0613 23.2848 38.4272 23.9766 37.7539C24.672 38.4313 25.366 39.0683 26.0527 39.6269C27.8112 41.0574 29.5234 42.0898 31.1562 42.6191C32.7891 43.1485 34.4137 43.1649 35.748 42.3945C37.0824 41.6241 37.8784 40.21 38.2363 38.5312C38.5943 36.8525 38.5549 34.8553 38.1953 32.6172C38.0319 31.6 37.7926 30.5262 37.4961 29.4199C38.3438 29.1699 39.1637 28.9047 39.9199 28.6094C41.992 27.8001 43.7066 26.8299 44.9551 25.6777C46.2036 24.5256 47.0098 23.1292 47.0098 21.5937C47.0098 20.0583 46.2036 18.66 44.9551 17.5078C43.7066 16.3557 41.992 15.3874 39.9199 14.5781C39.2235 14.3061 38.4717 14.06 37.6973 13.8262C37.9018 12.9902 38.0833 12.1688 38.209 11.3867C38.5688 9.1468 38.6068 7.14543 38.248 5.46288C37.8893 3.78034 37.089 2.36012 35.748 1.58593C35.0776 1.19884 34.3344 1.01058 33.5547 0.984367ZM33.4629 3.01952C33.9522 3.0329 34.3695 3.14933 34.7266 3.35546C35.4406 3.76772 35.9684 4.57008 36.25 5.89062C36.5316 7.21115 36.5218 8.99532 36.1895 11.0644C36.0756 11.7729 35.9104 12.5237 35.7227 13.293C33.6772 12.8007 31.4357 12.4354 29.0469 12.2207C27.8476 10.5593 26.6154 9.04577 25.373 7.70312C26.0302 7.06165 26.6831 6.46172 27.3203 5.94335C28.946 4.62093 30.4851 3.72109 31.7695 3.30468C32.4117 3.09647 32.9736 3.00615 33.4629 3.01952ZM14.4863 3.02538C14.9784 3.01165 15.5415 3.10173 16.1855 3.31054C17.4737 3.72815 19.0155 4.62759 20.6426 5.95116C21.267 6.45913 21.9053 7.04764 22.5488 7.67382C21.2973 9.02747 20.0549 10.5541 18.8477 12.2305C16.4689 12.4491 14.2366 12.8163 12.2012 13.3105C12.0148 12.5455 11.8496 11.7986 11.7363 11.0937C11.4036 9.02282 11.3953 7.2384 11.6777 5.91405C11.9601 4.58971 12.4922 3.7813 13.2129 3.36523C13.5732 3.15719 13.9942 3.03912 14.4863 3.02538ZM23.9766 9.14257C24.7912 10.0291 25.606 10.9992 26.4141 12.043C25.62 12.0099 24.8163 11.9902 24 11.9902C23.1675 11.9902 22.3484 12.0105 21.5391 12.0449C22.3474 11.0003 23.1618 10.0297 23.9766 9.14257ZM24 14.0098C25.3599 14.0098 26.6853 14.0656 27.9746 14.1601C28.8617 15.4343 29.7286 16.786 30.5547 18.2168C31.2805 19.4739 31.9373 20.7292 32.5352 21.9687C31.931 23.2248 31.2632 24.497 30.5273 25.7715C29.8796 26.8934 29.2032 27.9589 28.5156 28.9863C27.0593 29.108 25.5503 29.1758 24 29.1758C22.4124 29.1758 20.8695 29.104 19.3809 28.9766C18.7047 27.9639 18.0397 26.9145 17.4023 25.8105C16.6682 24.5389 16.0036 23.2691 15.4004 22.0156C16.0061 20.7551 16.6737 19.4782 17.4121 18.1992C18.2338 16.776 19.0982 15.432 19.9805 14.1641C21.2836 14.0674 22.6245 14.0098 24 14.0098ZM30.5488 14.4101C32.1973 14.6158 33.7451 14.9014 35.1855 15.2441C34.7581 16.6453 34.2317 18.1088 33.5938 19.6191C33.1796 18.8207 32.7506 18.0196 32.2871 17.2168C31.7254 16.2439 31.1404 15.3164 30.5488 14.4101ZM17.3438 14.4258C16.7647 15.3151 16.1948 16.2246 15.6445 17.1777C15.1751 17.9908 14.7372 18.8027 14.3184 19.6113C13.686 18.1101 13.1627 16.6549 12.7383 15.2617C14.168 14.9184 15.7068 14.6338 17.3438 14.4258ZM37.1641 15.7754C37.8729 15.9899 38.5576 16.2137 39.1855 16.459C41.0957 17.205 42.6067 18.0885 43.5859 18.9922C44.5652 19.8959 44.9902 20.7577 44.9902 21.5937C44.9902 22.4298 44.5652 23.2916 43.5859 24.1953C42.6067 25.099 41.0957 25.9824 39.1855 26.7285C38.4877 27.0011 37.721 27.2482 36.9238 27.4824C36.3552 25.7236 35.6294 23.8888 34.7656 22.0156C35.7588 19.8651 36.5611 17.7683 37.1641 15.7754ZM10.8027 15.7851C11.3988 17.7582 12.1908 19.8341 13.1699 21.9629C12.3005 23.8469 11.5711 25.6922 11 27.4609C10.231 27.2329 9.49021 26.9924 8.81445 26.7285C6.9043 25.9824 5.39335 25.099 4.41406 24.1953C3.43477 23.2916 3.00977 22.4298 3.00977 21.5937C3.00977 20.7577 3.43477 19.8959 4.41406 18.9922C5.39335 18.0885 6.9043 17.205 8.81445 16.459C9.43277 16.2175 10.1059 15.9968 10.8027 15.7851ZM24 17C21.2504 17 19 19.2504 19 22C19 24.7496 21.2504 27 24 27C26.7496 27 29 24.7496 29 22C29 19.2504 26.7496 17 24 17ZM14.3418 24.3652C14.7625 25.1778 15.2 25.9933 15.6719 26.8105C16.041 27.45 16.4181 28.0724 16.8008 28.6836C15.4578 28.4974 14.1812 28.2616 12.9824 27.9824C13.3637 26.8148 13.8197 25.6028 14.3418 24.3652ZM33.6191 24.3652C34.1433 25.6057 34.5996 26.8197 34.9824 27.9902C33.7798 28.2691 32.4993 28.504 31.1523 28.6894C31.5401 28.0708 31.923 27.4406 32.2969 26.793C32.7653 25.9817 33.2011 25.1719 33.6191 24.3652ZM12.4062 29.9238C14.2161 30.3526 16.1777 30.6819 18.2578 30.8965C19.6464 32.9049 21.093 34.7095 22.5488 36.2871C21.8978 36.9219 21.2526 37.5176 20.6211 38.0312C18.9954 39.3537 17.4543 40.2516 16.1699 40.668C14.8855 41.0844 13.9269 41.0294 13.2129 40.6172C12.4988 40.2049 11.973 39.4026 11.6914 38.082C11.4098 36.7615 11.4176 34.9793 11.75 32.9101C11.9008 31.9715 12.1262 30.9664 12.4062 29.9238ZM35.5605 29.9316C35.843 30.9805 36.069 31.9893 36.2207 32.9336C36.5534 35.0045 36.5617 36.7889 36.2793 38.1133C35.9969 39.4376 35.4687 40.248 34.748 40.6641C34.0274 41.0801 33.0596 41.1344 31.7715 40.7168C30.4834 40.2992 28.9416 39.3997 27.3145 38.0762C26.6784 37.5588 26.0287 36.9583 25.373 36.3184C26.8387 34.7346 28.2955 32.9207 29.6934 30.9004C31.7787 30.6872 33.7458 30.3599 35.5605 29.9316ZM20.8672 31.1016C21.894 31.1575 22.9342 31.1953 24 31.1953C25.0305 31.1953 26.0371 31.1598 27.0312 31.1074C26.015 32.4786 24.979 33.7251 23.9473 34.8476C22.9161 33.7227 21.8821 32.474 20.8672 31.1016Z" fill="#EEE7E1"/>
</svg>
