<svg width="100" height="100" viewBox="0 0 100 100" fill="none" xmlns="http://www.w3.org/2000/svg">
<circle cx="50" cy="50" r="50" fill="white"/>
<path d="M38.9463 3.16406H50.4785C53.0944 3.16406 55.3035 3.56283 57.106 4.36035C58.9243 5.15788 60.304 6.33822 61.2451 7.90137C62.2021 9.44857 62.6807 11.3547 62.6807 13.6196C62.6807 15.2147 62.3537 16.6742 61.6997 17.998C61.0617 19.306 60.1366 20.4225 58.9243 21.3477C57.728 22.2568 56.2925 22.9347 54.6177 23.3813L53.3257 23.8838H42.4873L42.4395 20.1274H50.6221C52.2809 20.1274 53.6606 19.8403 54.7612 19.2661C55.8618 18.6759 56.6912 17.8864 57.2495 16.8975C57.8078 15.9085 58.0869 14.8159 58.0869 13.6196C58.0869 12.2798 57.8237 11.1074 57.2974 10.1025C56.771 9.09766 55.9416 8.32406 54.8091 7.78174C53.6925 7.22347 52.249 6.94434 50.4785 6.94434H43.564V38H38.9463V3.16406ZM59.3071 38L50.8374 22.209L55.6465 22.1851L64.2358 37.7129V38H59.3071ZM43.2769 60.1641V95H38.6592V60.1641H43.2769ZM64.3076 60.1641L49.8325 76.4097L41.6978 84.8555L40.9321 79.9268L47.0571 73.1797L58.7568 60.1641H64.3076ZM59.8574 95L46.9614 78.0127L49.7129 74.3521L65.3604 95H59.8574Z" fill="#444342"/>
</svg>
