<svg width="47" height="27" viewBox="0 0 47 27" fill="none" xmlns="http://www.w3.org/2000/svg">
<path d="M3.41797 5.11719C4.70703 3.875 7.03906 3.25391 10.4141 3.25391C12.5234 3.25391 14.293 3.46484 15.7227 3.88672C17.1523 4.30859 18.2188 4.75391 18.9219 5.22266C19.6484 5.69141 20.0117 6.20703 20.0117 6.76953C20.0117 8.05859 18.5117 9.33594 15.5117 10.6016C15.0664 10.8125 13.8945 11.2461 11.9961 11.9023C10.1211 12.5352 8.85547 12.9688 8.19922 13.2031C6.76953 13.7422 5.82031 14.1641 5.35156 14.4688C5.35156 14.5859 5.39844 14.6914 5.49219 14.7852C5.58594 14.8555 5.80859 14.9961 6.16016 15.207C6.51172 15.3945 7.03906 15.6758 7.74219 16.0508C8.44531 16.4023 9.41797 16.918 10.6602 17.5977C14.3633 19.6133 18.1719 21.7695 22.0859 24.0664C22.2734 24.207 22.5195 24.4062 22.8242 24.6641C23.1289 24.8984 23.2812 25.168 23.2812 25.4727C23.2812 25.7539 23.1875 25.9531 23 26.0703C22.8125 26.1875 22.5898 26.2695 22.332 26.3164C22.0742 26.3867 21.8047 26.4219 21.5234 26.4219H20.8203C20.3516 26.4219 19.3672 25.918 17.8672 24.9102C16.3906 23.9023 15.1016 23.0234 14 22.2734C12.9219 21.5234 11.8203 20.7969 10.6953 20.0938C8.04688 18.3828 5.94922 17.2695 4.40234 16.7539V24.8047C4.40234 25.2734 4.00391 25.5078 3.20703 25.5078H2.82031C2.32812 25.5078 1.96484 25.2617 1.73047 24.7695C1.40234 24.0195 1.23828 22.6367 1.23828 20.6211L1.34375 13.5547C1.34375 10.0859 1.19141 7.03906 0.886719 4.41406C1.44922 3.45312 2.14062 3.48828 2.96094 4.51953C3.14844 4.75391 3.30078 4.95313 3.41797 5.11719ZM15.3008 5.53906L13.0156 5.50391C7.71875 5.50391 4.67188 6.11328 3.875 7.33203C3.64062 7.66016 3.52344 8.08203 3.52344 8.59766C3.52344 9.08984 3.54688 9.52344 3.59375 9.89844C3.71094 10.8594 3.98047 11.5508 4.40234 11.9727C4.47266 11.9961 4.58984 12.0078 4.75391 12.0078C4.94141 12.0078 5.26953 11.9609 5.73828 11.8672C6.23047 11.7734 6.875 11.6094 7.67188 11.375C8.49219 11.1172 9.35938 10.8125 10.2734 10.4609C11.1875 10.1094 12.0664 9.74609 12.9102 9.37109C15.5586 8.17578 16.8828 7.20312 16.8828 6.45312C16.8828 6.03125 16.3555 5.72656 15.3008 5.53906ZM26.4453 25.4727C26.4453 25.3789 26.4688 25.2383 26.5156 25.0508C26.5859 24.8633 26.6445 24.3828 26.6914 23.6094C26.7617 22.8359 26.8086 21.9102 26.832 20.832C26.8789 19.7305 26.9141 18.5352 26.9375 17.2461C26.9844 15.9336 27.0195 14.5977 27.043 13.2383C27.0898 11.8789 27.1367 10.5547 27.1836 9.26562C27.2305 7.95312 27.3008 6.75781 27.3945 5.67969C27.6055 3.33594 27.8867 1.94141 28.2383 1.49609C28.4258 0.957031 29.0586 0.6875 30.1367 0.6875C30.1367 0.6875 30.3008 0.6875 30.6289 0.6875C30.6289 1.57813 30.5234 3.45312 30.3125 6.3125C30.125 9.17188 30.0195 10.8711 29.9961 11.4102C31.5195 10.6367 32.9844 9.80469 34.3906 8.91406C35.8203 8 37.1445 7.16797 38.3633 6.41797C39.6055 5.64453 40.7305 5.01172 41.7383 4.51953C42.7461 4.00391 43.4961 3.74609 43.9883 3.74609C44.8086 3.74609 45.2188 4.0625 45.2188 4.69531C45.2188 5.1875 44.8438 5.73828 44.0938 6.34766C43.3438 6.93359 42.4062 7.55469 41.2812 8.21094C40.1562 8.84375 38.9258 9.48828 37.5898 10.1445C36.2773 10.8008 35.0586 11.4453 33.9336 12.0781C32.8086 12.6875 31.8711 13.2617 31.1211 13.8008C30.3711 14.3398 29.9961 14.8086 29.9961 15.207C30.418 15.4648 31.1094 15.8164 32.0703 16.2617C33.0547 16.6836 34.1445 17.1758 35.3398 17.7383C36.5586 18.2773 37.8125 18.8633 39.1016 19.4961C40.4141 20.1055 41.6094 20.7266 42.6875 21.3594C45.125 22.7422 46.3438 23.8906 46.3438 24.8047C46.3438 25.1094 46.1445 25.3203 45.7461 25.4375C45.582 25.4844 45.418 25.5078 45.2539 25.5078H44.9023C43.7773 25.5078 42.7227 25.2383 41.7383 24.6992C40.7539 24.1602 39.6992 23.5156 38.5742 22.7656C37.4727 22.0156 36.2188 21.2422 34.8125 20.4453C33.4062 19.625 31.707 18.9453 29.7148 18.4062V25.4375C29.668 25.5312 29.457 25.6367 29.082 25.7539C28.543 25.918 27.9688 26 27.3594 26C26.75 26 26.4453 25.8242 26.4453 25.4727Z" fill="#EEE7E1"/>
</svg>
