<svg width="50" height="38" viewBox="0 0 50 38" fill="none" xmlns="http://www.w3.org/2000/svg">
<path d="M43.03 21.802C41.283 21.811 39.769 22.231 38.5 22.856C38.036 21.93 37.566 21.115 37.487 20.509C37.395 19.802 37.288 19.38 37.399 18.537C37.51 17.694 37.998 16.501 37.99 16.412C37.983 16.323 37.881 15.894 36.873 15.886C35.865 15.879 35.003 16.08 34.901 16.346C34.799 16.612 34.605 17.211 34.485 17.836C34.308 18.75 32.473 22.01 31.43 23.715C31.089 23.049 30.799 22.463 30.739 21.999C30.647 21.292 30.54 20.87 30.651 20.027C30.762 19.184 31.25 17.991 31.242 17.902C31.235 17.813 31.133 17.384 30.125 17.376C29.117 17.369 28.255 17.57 28.153 17.836C28.051 18.102 27.943 18.724 27.737 19.326C27.53 19.928 25.09 25.365 24.451 26.774C24.125 27.492 23.842 28.069 23.642 28.463L23.641 28.461C23.641 28.461 23.629 28.487 23.607 28.532C23.436 28.867 23.334 29.053 23.334 29.053C23.334 29.053 23.335 29.056 23.337 29.06C23.201 29.306 23.056 29.535 22.984 29.535C22.934 29.535 22.833 28.879 23.006 27.98C23.369 26.094 24.241 23.152 24.233 23.051C24.229 22.999 24.395 22.487 23.663 22.218C22.952 21.958 22.698 22.392 22.633 22.393C22.57 22.394 22.523 22.546 22.523 22.546C22.523 22.546 23.316 19.238 21.011 19.238C19.571 19.238 17.575 20.814 16.591 22.242C15.971 22.58 14.643 23.305 13.234 24.079C12.693 24.376 12.141 24.68 11.617 24.969C11.581 24.93 11.546 24.89 11.509 24.851C8.715 21.87 3.551 19.762 3.77 15.755C3.85 14.298 4.356 10.462 13.694 5.80899C21.343 1.99699 27.467 3.04599 28.525 5.37099C30.037 8.69199 25.252 14.865 17.309 15.755C14.282 16.094 12.689 14.921 12.292 14.484C11.875 14.024 11.813 14.003 11.657 14.09C11.403 14.231 11.564 14.637 11.657 14.879C11.894 15.496 12.867 16.591 14.527 17.135C15.987 17.614 19.54 17.877 23.838 16.215C28.651 14.353 32.409 9.17399 31.306 4.84499C30.183 0.441994 22.883 -1.00501 15.974 1.44899C11.862 2.90999 7.411 5.20299 4.21 8.19599C0.404002 11.756 -0.201998 14.854 0.0480019 16.148C0.937002 20.748 7.276 23.743 9.815 25.963C9.69 26.032 9.572 26.097 9.465 26.156C8.192 26.786 3.36 29.315 2.151 31.987C0.780002 35.018 2.369 37.193 3.422 37.486C6.682 38.393 10.028 36.761 11.826 34.079C13.624 31.398 13.404 27.907 12.579 26.313C12.569 26.293 12.557 26.274 12.547 26.254C12.876 26.059 13.211 25.862 13.543 25.667C14.191 25.287 14.827 24.932 15.379 24.631C15.07 25.477 14.844 26.491 14.726 27.956C14.588 29.677 15.293 31.901 16.216 32.776C16.622 33.161 17.111 33.17 17.421 33.17C18.495 33.17 18.985 32.277 19.524 31.22C20.186 29.924 20.773 28.416 20.773 28.416C20.773 28.416 20.036 32.491 22.044 32.491C22.775 32.491 23.511 31.542 23.839 31.059C23.84 31.064 23.84 31.067 23.84 31.067C23.84 31.067 23.859 31.036 23.896 30.972C23.972 30.856 24.015 30.782 24.015 30.782C24.015 30.782 24.017 30.774 24.019 30.761C24.313 30.251 24.965 29.087 25.943 27.167C27.206 24.687 28.418 21.581 28.418 21.581C28.418 21.581 28.531 22.341 28.9 23.596C29.117 24.335 29.579 25.152 29.943 25.935C29.65 26.342 29.47 26.575 29.47 26.575C29.47 26.575 29.472 26.579 29.475 26.587C29.241 26.898 28.978 27.233 28.703 27.561C27.706 28.749 26.518 30.105 26.359 30.497C26.172 30.958 26.216 31.298 26.578 31.57C26.842 31.769 27.313 31.8 27.805 31.767C28.701 31.707 29.332 31.484 29.643 31.349C30.128 31.178 30.693 30.908 31.223 30.518C32.201 29.799 32.791 28.77 32.735 27.407C32.704 26.656 32.464 25.912 32.161 25.209C32.25 25.081 32.339 24.953 32.428 24.822C33.97 22.567 35.166 20.09 35.166 20.09C35.166 20.09 35.279 20.85 35.648 22.105C35.835 22.741 36.204 23.434 36.535 24.114C35.085 25.292 34.186 26.661 33.873 27.559C33.296 29.22 33.748 29.973 34.596 30.144C34.98 30.222 35.523 30.046 35.931 29.873C36.439 29.705 37.049 29.424 37.619 29.005C38.597 28.286 39.538 27.279 39.481 25.916C39.455 25.296 39.287 24.68 39.059 24.088C40.288 23.576 41.88 23.291 43.907 23.528C48.256 24.036 49.109 26.751 48.946 27.887C48.783 29.024 47.871 29.648 47.566 29.837C47.261 30.026 47.168 30.091 47.194 30.231C47.231 30.435 47.372 30.427 47.632 30.383C47.99 30.323 49.915 29.459 49.998 27.361C50.102 24.703 47.55 21.778 43.03 21.802ZM9.512 33.102C8.072 34.673 6.059 35.267 5.196 34.767C4.264 34.227 4.633 31.913 6.401 30.246C7.478 29.23 8.869 28.294 9.792 27.717C10.002 27.591 10.31 27.405 10.685 27.18C10.747 27.145 10.782 27.125 10.782 27.125L10.781 27.123C10.853 27.08 10.928 27.035 11.004 26.989C11.647 29.363 11.024 31.453 9.512 33.102ZM20.005 25.968C19.503 27.191 18.453 30.32 17.814 30.152C17.265 30.008 16.931 27.629 17.704 25.289C18.093 24.111 18.924 22.703 19.413 22.156C20.199 21.277 21.065 20.989 21.275 21.346C21.544 21.8 20.32 25.201 20.005 25.968ZM28.675 30.105C28.462 30.216 28.267 30.286 28.177 30.232C28.11 30.192 28.265 30.046 28.265 30.046C28.265 30.046 29.349 28.879 29.777 28.348C30.025 28.039 30.314 27.672 30.627 27.262C30.63 27.303 30.631 27.344 30.631 27.384C30.627 28.782 29.277 29.725 28.675 30.105ZM35.354 28.582C35.195 28.469 35.222 28.104 35.743 26.968C35.948 26.522 36.415 25.77 37.228 25.052C37.322 25.347 37.38 25.63 37.378 25.894C37.367 27.653 36.112 28.31 35.354 28.582Z" fill="#444342"/>
</svg>
